<svg width="24" height="25" viewBox="0 0 24 25" fill="none" xmlns="http://www.w3.org/2000/svg">
<path d="M19 18.8275H5C4.44772 18.8275 4 19.2753 4 19.8275C4 20.3798 4.44772 20.8275 5 20.8275H19C19.5523 20.8275 20 20.3798 20 19.8275C20 19.2753 19.5523 18.8275 19 18.8275Z" fill="#008CB8"/>
<path d="M4 17.8275V19.8275C4 20.3798 4.44772 20.8275 5 20.8275C5.55228 20.8275 6 20.3798 6 19.8275V17.8275C6 17.2753 5.55228 16.8275 5 16.8275C4.44772 16.8275 4 17.2753 4 17.8275Z" fill="#008CB8"/>
<path d="M18 17.8275V19.8275C18 20.3798 18.4477 20.8275 19 20.8275C19.5523 20.8275 20 20.3798 20 19.8275V17.8275C20 17.2753 19.5523 16.8275 19 16.8275C18.4477 16.8275 18 17.2753 18 17.8275Z" fill="#008CB8"/>
<path d="M12 15.8275C11.7927 15.8291 11.59 15.7662 11.42 15.6475L7.42 12.8275C7.20441 12.6746 7.05814 12.4425 7.01317 12.1821C6.96819 11.9216 7.02817 11.6539 7.18 11.4375C7.25578 11.3294 7.35224 11.2373 7.4638 11.1667C7.57536 11.096 7.69982 11.0481 7.82998 11.0258C7.96014 11.0035 8.09344 11.0072 8.22217 11.0366C8.3509 11.0661 8.47252 11.1208 8.58 11.1975L12 13.5875L15.4 11.0275C15.6122 10.8684 15.8789 10.8001 16.1414 10.8376C16.404 10.8751 16.6409 11.0154 16.8 11.2275C16.9591 11.4397 17.0275 11.7064 16.9899 11.969C16.9524 12.2315 16.8122 12.4684 16.6 12.6275L12.6 15.6275C12.4269 15.7574 12.2164 15.8275 12 15.8275Z" fill="#008CB8"/>
<path d="M12 13.8275C11.7348 13.8275 11.4804 13.7222 11.2929 13.5347C11.1054 13.3471 11 13.0928 11 12.8275V4.82755C11 4.56233 11.1054 4.30797 11.2929 4.12044C11.4804 3.9329 11.7348 3.82755 12 3.82755C12.2652 3.82755 12.5196 3.9329 12.7071 4.12044C12.8946 4.30797 13 4.56233 13 4.82755V12.8275C13 13.0928 12.8946 13.3471 12.7071 13.5347C12.5196 13.7222 12.2652 13.8275 12 13.8275Z" fill="#008CB8"/>
</svg>
