<svg width="235" height="54" viewBox="0 0 235 54" fill="none" xmlns="http://www.w3.org/2000/svg">
<path d="M43.048 2.104L29.152 52H14.464L0.064 2.104H12.52L22.024 42.784L30.952 2.104H43.048Z" fill="url(#paint0_linear_3_92)"/>
<path d="M58.5505 2.104V52H46.7425V2.104H58.5505ZM88.2123 0.879997C91.3323 0.879997 94.0923 1.336 96.4923 2.248C98.9403 3.16 101.244 4.528 103.404 6.352L97.7883 13.048C96.3003 11.896 94.8363 11.032 93.3963 10.456C91.9563 9.88 90.4203 9.592 88.7883 9.592C85.4283 9.592 82.7643 11.008 80.7963 13.84C78.8763 16.672 77.9163 21.04 77.9163 26.944C77.9163 32.752 78.8763 37.072 80.7963 39.904C82.7643 42.688 85.4763 44.08 88.9323 44.08C90.7563 44.08 92.4123 43.744 93.9003 43.072C95.3883 42.352 96.9963 41.344 98.7243 40.048L103.98 46.816C102.108 48.688 99.8283 50.224 97.1403 51.424C94.5003 52.624 91.5723 53.224 88.3563 53.224C83.7483 53.224 79.7403 52.216 76.3323 50.2C72.9243 48.184 70.2603 45.208 68.3403 41.272C66.4683 37.288 65.5322 32.512 65.5322 26.944C65.5322 21.52 66.4923 16.84 68.4123 12.904C70.3803 8.968 73.0683 5.992 76.4763 3.976C79.9323 1.912 83.8443 0.879997 88.2123 0.879997ZM142.675 2.104L141.523 11.176H129.211V52H117.403V11.176H104.515V2.104H142.675ZM165.059 0.879997C172.163 0.879997 177.683 3.16 181.619 7.72C185.603 12.28 187.595 18.712 187.595 27.016C187.595 32.44 186.683 37.12 184.859 41.056C183.083 44.992 180.491 48.016 177.083 50.128C173.723 52.192 169.715 53.224 165.059 53.224C160.403 53.224 156.395 52.192 153.035 50.128C149.675 48.064 147.083 45.088 145.259 41.2C143.483 37.264 142.595 32.536 142.595 27.016C142.595 21.64 143.483 16.984 145.259 13.048C147.083 9.112 149.675 6.112 153.035 4.048C156.395 1.936 160.403 0.879997 165.059 0.879997ZM165.059 9.52C161.651 9.52 159.107 10.912 157.427 13.696C155.795 16.432 154.979 20.872 154.979 27.016C154.979 33.16 155.819 37.624 157.499 40.408C159.179 43.192 161.699 44.584 165.059 44.584C168.515 44.584 171.059 43.216 172.691 40.48C174.371 37.696 175.211 33.208 175.211 27.016C175.211 20.824 174.371 16.36 172.691 13.624C171.011 10.888 168.467 9.52 165.059 9.52ZM211.096 32.92H206.488V52H194.68V2.104H211.024C217.84 2.104 222.952 3.352 226.36 5.848C229.816 8.344 231.544 12.16 231.544 17.296C231.544 20.512 230.776 23.2 229.24 25.36C227.704 27.472 225.28 29.272 221.968 30.76L234.64 52H221.32L211.096 32.92ZM206.488 24.784H211.456C214.096 24.784 216.064 24.184 217.36 22.984C218.704 21.784 219.376 19.888 219.376 17.296C219.376 14.896 218.656 13.144 217.216 12.04C215.824 10.936 213.664 10.384 210.736 10.384H206.488V24.784Z" fill="#202020"/>
<defs>
<linearGradient id="paint0_linear_3_92" x1="70.1875" y1="27.6104" x2="59.1909" y2="57.1581" gradientUnits="userSpaceOnUse">
<stop stop-color="#5BE2FF"/>
<stop offset="1" stop-color="#009CCD"/>
</linearGradient>
</defs>
</svg>
